<?xml version="1.0" standalone="no"?>
<!DOCTYPE svg PUBLIC "-//W3C//DTD SVG 20010904//EN"
 "http://www.w3.org/TR/2001/REC-SVG-20010904/DTD/svg10.dtd">
<svg version="1.0" xmlns="http://www.w3.org/2000/svg"
 width="128.000000pt" height="128.000000pt" viewBox="0 0 128.000000 128.000000"
 preserveAspectRatio="xMidYMid meet">
<metadata>
Created by potrace 1.10, written by Peter Selinger 2001-2011
</metadata>
<g transform="translate(0.000000,128.000000) scale(0.100000,-0.100000)"
fill="#000000" stroke="none">
<path d="M455 1246 c-166 -53 -311 -178 -385 -333 -38 -79 -52 -138 -48 -193
l3 -45 28 83 c50 152 83 212 163 294 72 75 156 125 263 158 53 17 103 35 111
40 23 15 -86 11 -135 -4z"/>
<path d="M702 1251 c9 -6 58 -25 110 -42 116 -37 161 -64 243 -141 78 -72 124
-146 160 -253 15 -44 34 -91 42 -105 13 -23 14 -20 9 45 -18 233 -278 489
-511 502 -52 3 -66 1 -53 -6z"/>
<path d="M800 1053 c-50 -19 -50 -18 -50 -302 0 -151 -5 -282 -10 -303 -29
-103 -153 -104 -202 -1 -25 51 -56 67 -110 56 -47 -9 -61 -40 -47 -104 9 -45
20 -63 64 -106 44 -43 62 -53 111 -63 53 -11 137 -10 192 3 56 14 134 95 154
159 14 48 19 572 6 619 -10 35 -68 57 -108 42z m88 -328 c-4 -286 -5 -302 -26
-347 -39 -83 -118 -128 -222 -128 -129 0 -221 72 -237 185 l-5 40 56 0 c44 0
56 -3 55 -15 -3 -34 2 -50 27 -79 53 -64 149 -64 209 -1 l30 31 3 297 c1 163
4 302 6 307 2 6 27 10 55 10 l53 0 -4 -300z"/>
<path d="M22 523 c17 -233 271 -491 503 -509 80 -6 74 3 -24 36 -115 38 -193
83 -264 149 -84 79 -136 166 -177 294 -18 53 -34 97 -37 97 -3 0 -4 -30 -1
-67z"/>
<path d="M1257 573 c-2 -5 -15 -39 -27 -78 -75 -231 -212 -369 -440 -444 -100
-33 -107 -44 -26 -37 107 9 234 74 331 171 95 95 162 223 172 328 5 60 2 81
-10 60z"/>
</g>
</svg>
